<?xml version="1.0" standalone="no"?>
<!DOCTYPE svg PUBLIC "-//W3C//DTD SVG 20010904//EN"
 "http://www.w3.org/TR/2001/REC-SVG-20010904/DTD/svg10.dtd">
<svg version="1.0" xmlns="http://www.w3.org/2000/svg"
 width="300.000000pt" height="300.000000pt" viewBox="0 0 300.000000 300.000000"
 preserveAspectRatio="xMidYMid meet">
<metadata>
Created by potrace 1.10, written by Peter Selinger 2001-2011
</metadata>
<g transform="translate(0.000000,300.000000) scale(0.100000,-0.100000)"
fill="#000000" stroke="none">
<path d="M615 2709 l7 -42 -66 7 -66 7 7 -258 c5 -142 8 -442 8 -668 l-1 -410
-47 -455 c-26 -250 -48 -466 -49 -480 -3 -24 0 -25 67 -32 39 -3 152 -11 253
-18 164 -9 187 -13 214 -33 29 -22 36 -22 326 -23 223 0 326 -4 412 -17 153
-22 339 -36 540 -39 l165 -3 -3 28 c-3 25 -1 27 30 27 18 0 43 3 56 6 l22 6 0
537 0 536 40 445 c22 245 47 494 55 553 8 59 15 130 15 156 0 54 -8 61 -66 61
l-35 0 3 48 3 47 -60 3 c-33 2 -136 -2 -230 -9 -358 -27 -904 -10 -1319 41
-88 11 -189 20 -224 20 l-64 0 7 -41z m275 1 c91 -11 188 -20 215 -21 l50 -1
-40 -8 c-22 -4 -138 -11 -257 -15 -214 -7 -218 -7 -218 13 0 11 -3 27 -6 36
-8 22 48 21 256 -4z m1597 -52 c-12 -49 -20 -633 -21 -1462 l-1 -869 -738 -1
c-406 -1 -740 1 -742 4 -2 3 6 43 16 90 12 51 22 142 25 230 8 191 13 185
-137 180 -63 -3 -170 -4 -238 -5 l-123 0 -3 805 c-1 443 -6 856 -10 918 l-8
112 49 -7 c27 -4 105 -7 174 -6 69 1 406 4 750 7 344 3 668 10 720 15 52 4
139 9 194 10 97 1 98 1 93 -21z m93 -113 c0 -20 -9 -109 -20 -198 -10 -89 -31
-301 -45 -472 -14 -170 -27 -319 -29 -330 -5 -25 2 536 10 823 l6 212 39 0
c38 0 39 -1 39 -35z m-2075 -1525 l-7 -200 26 -44 c14 -25 102 -125 195 -223
93 -98 168 -179 168 -180 -2 -2 -261 13 -376 22 l-83 7 4 51 c26 288 74 767
77 767 2 0 0 -90 -4 -200z m489 -213 c16 -12 18 -28 17 -118 0 -57 -4 -120 -6
-139 -18 -113 -39 -210 -45 -210 -23 0 -429 436 -430 460 0 3 37 4 82 2 46 -1
126 1 178 6 142 14 184 13 204 -1z m1239 -504 c116 -6 127 -8 127 -25 0 -19
-7 -19 -142 -13 -181 7 -425 24 -503 34 -77 11 335 14 518 4z"/>
</g>
</svg>
