<?xml version="1.0" standalone="no"?>
<!DOCTYPE svg PUBLIC "-//W3C//DTD SVG 20010904//EN"
 "http://www.w3.org/TR/2001/REC-SVG-20010904/DTD/svg10.dtd">
<svg version="1.0" xmlns="http://www.w3.org/2000/svg"
 width="300.000000pt" height="270.000000pt" viewBox="0 0 300.000000 270.000000"
 preserveAspectRatio="xMidYMid meet">
<metadata>
Created by potrace 1.10, written by Peter Selinger 2001-2011
</metadata>
<g transform="translate(0.000000,270.000000) scale(0.100000,-0.100000)"
fill="#000000" stroke="none">
<path d="M1512 2365 c-79 -17 -168 -49 -252 -88 -120 -56 -513 -335 -645 -456
-114 -106 -286 -327 -331 -426 -13 -27 -29 -81 -35 -120 -15 -78 -19 -467 -6
-526 4 -20 25 -63 46 -96 37 -57 43 -62 127 -97 121 -51 216 -73 369 -86 72
-6 166 -15 210 -20 208 -25 318 -32 415 -26 118 7 295 -7 385 -30 39 -10 111
-16 210 -17 137 -1 158 1 250 27 55 16 138 48 185 71 47 23 101 48 120 55 70
27 89 57 153 240 l40 115 1 170 c1 259 -25 354 -142 532 -34 51 -68 116 -78
148 -20 70 -117 217 -214 324 -38 42 -88 105 -112 141 -46 69 -122 129 -190
150 -98 29 -400 38 -506 15z m258 -30 c0 -2 -21 -19 -47 -36 -27 -18 -76 -56
-109 -85 -38 -31 -93 -64 -140 -84 -73 -30 -89 -33 -214 -37 -74 -2 -157 -5
-185 -7 l-49 -3 29 24 c104 85 319 187 460 218 56 12 255 21 255 10z m173 -11
c19 -4 32 -16 42 -40 18 -44 102 -154 118 -154 7 0 44 -15 84 -33 58 -26 83
-45 135 -103 35 -39 72 -87 83 -107 l19 -35 -33 -71 c-22 -49 -37 -101 -46
-171 -8 -57 -27 -131 -44 -172 -16 -40 -38 -95 -49 -123 -11 -27 -26 -76 -34
-109 l-13 -59 -70 -19 c-95 -25 -404 -27 -480 -2 -35 11 -102 18 -225 21
l-175 5 -42 39 c-33 31 -51 39 -80 39 -153 2 -327 11 -340 19 -14 7 -12 11 11
26 15 10 24 20 22 22 -3 3 -18 -4 -34 -16 l-29 -21 -55 58 c-43 45 -60 73 -80
132 -74 212 -76 241 -17 311 58 69 152 139 188 139 35 0 84 38 100 79 7 16 32
43 56 60 l43 31 192 -7 191 -6 -33 -34 c-17 -18 -27 -33 -21 -33 6 0 26 17 46
39 19 21 47 41 63 45 74 19 154 70 259 165 l110 101 55 -6 c30 -3 67 -8 83
-10z m120 -40 c60 -38 85 -62 123 -122 38 -58 43 -73 16 -49 -9 9 -36 24 -59
34 -28 12 -59 39 -92 81 -71 88 -67 105 12 56z m-1211 -334 c-18 -17 -38 -30
-44 -30 -13 0 -9 5 36 38 41 32 47 26 8 -8z m1617 -161 c23 -41 23 -41 6 -94
-12 -33 -15 -59 -10 -71 6 -15 10 -8 16 29 10 61 14 66 27 28 6 -16 38 -70 72
-121 109 -162 134 -254 135 -491 0 -155 0 -156 -28 -195 -27 -36 -27 -37 -3
-11 14 15 26 26 26 23 0 -13 -60 -179 -84 -233 -44 -97 -95 -105 -167 -26 -37
41 -98 153 -119 218 -7 22 -29 72 -49 110 -62 122 -54 237 32 446 24 58 40
116 47 175 11 87 57 254 70 254 3 0 17 -18 29 -41z m-1878 -319 l51 -156 -61
-101 c-59 -97 -62 -107 -73 -195 -6 -51 -17 -106 -26 -123 -16 -33 -121 -176
-137 -187 -23 -17 -44 -7 -55 28 -13 37 -6 119 11 129 18 11 10 71 -12 91 -21
18 -21 25 -15 149 7 135 24 233 52 288 18 35 117 177 173 246 l36 44 3 -29 c1
-16 26 -99 53 -184z m193 -261 c30 -14 103 -98 156 -179 53 -82 128 -180 139
-180 3 0 25 26 49 58 23 31 73 90 111 130 l69 72 129 0 c100 0 145 -5 203 -21
68 -19 93 -21 255 -16 180 5 190 7 298 52 15 6 17 1 17 -41 0 -37 12 -75 50
-159 117 -256 145 -300 217 -345 26 -17 42 -30 35 -30 -6 0 -44 -16 -83 -35
-40 -19 -73 -35 -75 -35 -1 0 -5 8 -7 18 -4 13 -5 12 -6 -5 -1 -19 -13 -26
-73 -44 -107 -32 -297 -52 -284 -31 3 5 -9 7 -27 5 -29 -4 -30 -3 -14 10 9 8
17 18 17 22 0 5 -10 -1 -22 -12 -16 -14 -36 -21 -66 -21 l-43 1 33 29 c34 30
22 28 -22 -4 -24 -17 -29 -17 -105 -2 -60 12 -132 16 -282 16 l-201 -1 -44 40
c-24 21 -51 42 -60 45 -12 3 -22 28 -33 82 -9 42 -21 91 -25 107 l-8 30 -1
-35 c0 -19 5 -72 13 -116 11 -68 11 -86 -1 -107 -13 -25 -15 -26 -86 -20 -39
3 -74 7 -76 9 -2 2 4 14 15 25 19 22 19 22 -3 10 -12 -6 -25 -15 -28 -21 -3
-5 -39 -7 -88 -4 -86 6 -127 27 -127 64 0 9 -11 32 -25 51 -14 19 -34 53 -46
77 -11 24 -23 42 -25 39 -7 -7 24 -86 46 -117 11 -15 20 -35 20 -44 0 -9 7
-28 16 -41 20 -31 20 -31 -91 -1 -120 32 -236 86 -258 119 -17 26 -17 27 2 27
24 0 142 136 175 202 l24 47 23 -61 c12 -34 24 -57 26 -51 2 5 -8 41 -21 79
-38 104 -29 179 35 305 27 53 49 102 49 110 0 7 24 -10 53 -38 28 -28 65 -57
81 -64z m419 -36 l41 -28 -52 -3 c-66 -4 -125 12 -159 44 l-28 25 78 -5 c65
-4 86 -9 120 -33z m-247 12 c20 -8 49 -26 65 -40 42 -35 102 -48 186 -42 l71
5 -75 -71 c-42 -40 -89 -91 -104 -115 l-27 -43 -46 62 c-25 33 -46 65 -46 71
0 14 -53 87 -103 141 l-45 47 44 0 c25 0 61 -7 80 -15z m-666 -280 c0 -11 -5
-27 -10 -35 -7 -11 -10 -1 -10 35 0 36 3 46 10 35 5 -8 10 -24 10 -35z m880
-400 c13 -14 29 -25 37 -25 7 0 13 -5 13 -11 0 -8 -11 -9 -31 -5 -17 3 -45 6
-61 6 l-29 0 18 30 c21 36 23 37 53 5z"/>
<path d="M1891 2231 c-15 -10 -25 -41 -13 -41 14 1 56 29 44 30 -7 0 -10 5 -7
10 8 12 -5 13 -24 1z"/>
<path d="M1526 1851 c3 -3 -6 -11 -18 -19 l-23 -13 25 5 c15 3 31 -1 42 -11
10 -9 18 -11 18 -5 0 6 -5 14 -10 17 -7 4 -8 11 -1 18 7 9 3 12 -14 12 -13 0
-21 -2 -19 -4z"/>
<path d="M1897 1719 c-22 -11 -37 -23 -34 -25 5 -6 87 33 87 41 0 9 -14 4 -53
-16z"/>
<path d="M1007 1489 c-22 -11 -37 -23 -34 -25 6 -7 63 22 72 36 8 13 7 13 -38
-11z"/>
<path d="M1322 1296 c-47 -34 -49 -38 -15 -25 26 8 37 7 60 -6 l28 -17 -23 20
c-13 12 -20 27 -16 36 8 20 6 20 -34 -8z"/>
<path d="M2032 1183 c-24 -8 -41 -17 -38 -20 6 -7 74 16 81 28 4 5 5 9 3 8 -2
0 -22 -7 -46 -16z"/>
<path d="M2587 1325 c-15 -19 -23 -35 -18 -35 11 0 55 59 49 65 -2 2 -16 -11
-31 -30z"/>
<path d="M2615 1290 c-16 -16 -24 -30 -19 -30 6 0 23 14 39 30 16 17 24 30 19
30 -6 0 -23 -13 -39 -30z"/>
<path d="M2340 1001 c0 -5 9 -7 20 -4 22 6 28 -12 8 -20 -8 -3 -6 -6 4 -6 9
-1 22 -9 28 -18 11 -17 11 -17 6 0 -3 9 -1 17 4 17 6 0 1 9 -10 20 -20 20 -60
28 -60 11z"/>
<path d="M2633 967 c-35 -39 -37 -53 -2 -20 18 18 31 35 28 38 -3 3 -15 -5
-26 -18z"/>
<path d="M345 1185 c-18 -8 -23 -14 -13 -14 9 -1 19 -7 21 -13 4 -8 6 -7 6 4
1 9 7 18 14 21 6 2 10 7 7 10 -3 3 -18 -1 -35 -8z"/>
<path d="M875 944 c-39 -35 -39 -35 -7 -17 35 19 58 40 51 48 -3 2 -22 -12
-44 -31z"/>
<path d="M1065 810 c-11 -13 -14 -20 -6 -20 21 0 52 21 46 31 -9 14 -20 11
-40 -11z"/>
<path d="M592 793 c-18 -7 -4 -23 19 -23 12 0 19 5 17 12 -5 14 -18 18 -36 11z"/>
<path d="M1553 747 c-61 -38 -72 -59 -13 -26 34 20 82 60 69 59 -2 -1 -27 -15
-56 -33z"/>
<path d="M1627 719 c-22 -11 -37 -23 -34 -25 6 -7 77 28 77 38 0 10 2 11 -43
-13z"/>
<path d="M1710 685 c-25 -13 -39 -24 -32 -25 14 0 92 38 92 45 0 9 -15 4 -60
-20z"/>
<path d="M1164 595 c-10 -8 -14 -15 -7 -15 6 0 15 5 18 10 3 6 11 10 17 10 6
0 5 -7 -3 -17 -13 -15 -12 -15 10 -4 19 10 21 15 10 22 -19 12 -22 11 -45 -6z"/>
<path d="M1210 570 c-11 -7 -11 -10 -2 -10 7 0 10 -4 7 -10 -3 -5 1 -10 9 -10
9 0 16 -4 16 -10 0 -5 5 -10 10 -10 16 0 6 24 -13 32 -10 4 -15 12 -12 18 8
12 4 12 -15 0z"/>
<path d="M1803 557 c-24 -11 -43 -25 -43 -29 0 -9 44 12 75 36 27 21 18 19
-32 -7z"/>
<path d="M1828 534 c-27 -13 -48 -26 -48 -29 0 -8 55 16 80 35 33 26 25 24
-32 -6z"/>
<path d="M2167 519 c-22 -11 -37 -23 -34 -25 6 -7 77 28 77 38 0 10 2 11 -43
-13z"/>
<path d="M69 617 c12 -15 11 -17 -3 -17 -9 0 -16 -7 -16 -15 0 -8 6 -15 13
-15 8 0 8 -3 -2 -9 -11 -7 -10 -13 6 -30 l20 -22 -1 57 c-1 41 -5 59 -16 62
-13 5 -13 3 -1 -11z"/>
<path d="M1374 385 c-22 -17 -38 -20 -29 -5 9 14 -7 12 -28 -4 -16 -12 -14
-13 15 -11 18 2 47 4 63 5 18 1 23 4 12 7 -9 2 -15 9 -12 14 9 13 2 11 -21 -6z"/>
<path d="M1521 389 c-30 -12 -25 -17 19 -22 19 -3 42 -8 50 -11 9 -4 24 1 35
9 19 16 19 16 -4 9 -17 -4 -21 -3 -16 6 6 9 3 9 -14 1 -13 -7 -21 -8 -21 -2 0
6 -7 7 -17 4 -11 -4 -14 -3 -9 5 8 14 9 14 -23 1z"/>
</g>
</svg>
