<?xml version="1.0" standalone="no"?>
<!DOCTYPE svg PUBLIC "-//W3C//DTD SVG 20010904//EN"
 "http://www.w3.org/TR/2001/REC-SVG-20010904/DTD/svg10.dtd">
<svg version="1.0" xmlns="http://www.w3.org/2000/svg"
 width="300.000000pt" height="300.000000pt" viewBox="0 0 300.000000 300.000000"
 preserveAspectRatio="xMidYMid meet">
<metadata>
Created by potrace 1.10, written by Peter Selinger 2001-2011
</metadata>
<g transform="translate(0.000000,300.000000) scale(0.100000,-0.100000)"
fill="#000000" stroke="none">
<path d="M560 2243 c-8 -2 -20 -6 -27 -8 -7 -2 34 -48 90 -102 345 -331 460
-446 437 -440 -144 40 -697 177 -712 177 -15 0 -18 -4 -12 -22 3 -13 7 -24 9
-26 1 -1 242 -100 536 -219 520 -211 535 -218 575 -262 97 -109 109 -124 96
-129 -28 -9 -6 -34 98 -112 60 -45 121 -95 135 -112 14 -16 40 -78 60 -143 57
-182 142 -278 320 -366 92 -45 106 -49 172 -49 124 0 236 56 294 148 22 35 29
57 27 84 l-3 37 -477 304 c-363 232 -483 304 -499 300 -20 -6 -21 -3 -15 23
14 56 30 79 58 82 15 2 120 -29 235 -68 786 -270 824 -282 856 -276 85 16 130
74 131 171 1 83 -35 155 -118 233 -104 97 -232 146 -381 146 -62 -1 -111 -9
-215 -38 -74 -21 -145 -40 -156 -42 -12 -2 -90 9 -173 24 -132 25 -153 27
-160 14 -12 -22 -145 -10 -197 16 -22 11 -248 164 -503 341 -255 177 -464 321
-465 320 0 0 -8 -3 -16 -6z m147 -107 c65 -46 260 -181 433 -300 173 -120 317
-222 318 -227 6 -14 -15 -11 -148 23 -69 18 -132 40 -140 49 -35 38 -481 441
-485 437 -3 -3 312 -299 438 -410 29 -26 37 -37 25 -38 -9 0 -32 15 -50 33
-18 19 -140 136 -270 262 -131 125 -235 231 -233 235 3 5 -1 11 -7 13 -7 3
-10 6 -6 6 4 1 60 -37 125 -83z m202 -422 c378 -96 540 -133 551 -126 10 7 27
3 55 -11 25 -12 74 -23 129 -28 49 -5 90 -10 91 -11 2 -2 6 -26 10 -54 l7 -52
-39 -9 c-32 -7 -40 -15 -53 -50 -8 -23 -18 -44 -21 -48 -7 -7 -7 -7 -751 296
-453 183 -557 229 -522 229 4 0 248 -61 543 -136z m1721 -149 c90 -33 139 -65
203 -134 61 -65 90 -129 89 -197 -1 -92 -49 -154 -119 -154 -21 0 -1022 334
-1029 343 -1 1 -4 34 -8 73 l-6 71 118 -23 c151 -30 203 -29 299 0 163 52 185
56 283 52 72 -3 113 -10 170 -31z m-1045 -247 c28 -10 54 -23 58 -27 7 -7 -50
-51 -65 -51 -2 0 -31 30 -62 66 l-58 65 38 -16 c22 -9 62 -26 89 -37z m545
-308 c478 -305 500 -319 507 -336 12 -32 -17 -91 -71 -142 -43 -41 -68 -55
-125 -73 -96 -29 -149 -21 -271 38 -75 36 -109 60 -161 113 -84 85 -113 134
-145 246 -36 126 -59 156 -190 254 -63 46 -110 87 -106 91 4 4 33 25 66 48
l58 40 57 -36 c31 -20 202 -129 381 -243z"/>
<path d="M1483 1530 c-70 -28 -45 -140 32 -140 38 0 75 37 75 75 0 24 -7 39
-26 54 -29 23 -46 25 -81 11z m55 -32 c20 -17 14 -54 -13 -72 -27 -18 -39 -21
-30 -7 3 5 1 12 -5 16 -14 9 -13 48 2 63 9 9 9 12 0 12 -15 0 -26 -42 -17 -72
5 -18 4 -20 -4 -8 -14 19 -14 46 0 71 10 20 39 19 67 -3z m21 -74 c-6 -8 -19
-14 -27 -14 -12 0 -11 4 6 16 12 8 23 27 23 42 l2 27 4 -28 c3 -16 -1 -35 -8
-43z"/>
<path d="M2330 1558 c-55 -29 -78 -67 -86 -146 -6 -56 -5 -62 18 -84 28 -25
218 -107 335 -145 154 -49 226 -37 267 42 17 33 18 43 7 83 -38 142 -217 258
-416 269 -70 4 -86 2 -125 -19z m257 -23 c124 -39 213 -109 254 -199 31 -69
21 -83 -12 -18 -45 91 -139 160 -273 201 -111 34 -202 26 -253 -21 -25 -23
-29 -18 -13 12 33 62 151 72 297 25z m-78 -21 c80 -20 187 -72 236 -115 43
-38 81 -101 90 -150 6 -32 3 -39 -20 -58 -36 -28 -82 -27 -189 4 -109 31 -317
120 -346 147 -32 30 -23 89 21 135 53 54 103 63 208 37z"/>
<path d="M1935 947 c-29 -29 -35 -42 -35 -78 0 -156 227 -374 401 -387 102 -8
234 47 259 108 18 43 -8 85 -98 160 -170 143 -314 220 -423 228 -68 5 -69 4
-104 -31z m194 -3 c29 -9 51 -18 48 -21 -3 -3 -20 0 -38 6 -18 6 -55 11 -84
11 -99 0 -127 -52 -88 -166 12 -36 34 -67 88 -120 93 -92 171 -132 280 -142
l80 -8 -53 -7 c-104 -15 -215 37 -326 153 -106 111 -144 222 -96 283 31 39 76
42 189 11z m47 -43 c68 -23 148 -72 247 -151 99 -80 122 -109 113 -144 -8 -34
-70 -74 -127 -82 -56 -8 -149 11 -211 42 -27 14 -79 54 -118 90 -53 50 -74 79
-90 120 -23 62 -26 117 -7 132 30 25 105 22 193 -7z"/>
</g>
</svg>
